HIERARCHY
ROOT SpineBase
{
  OFFSET 0.000000 0.000000 0.000000
  CHANNELS 6 Xposition Yposition Zposition Zrotation Xrotation Yrotation
  JOINT SpineMid
  {
    OFFSET 0.000000 28.133752 0.000000
    CHANNELS 3 Zrotation Xrotation Yrotation
    JOINT SpineShoulder
    {
      OFFSET -0.059455 21.038735 -0.822602
      CHANNELS 3 Zrotation Xrotation Yrotation
      JOINT Neck
      {
        OFFSET -0.028221 7.002378 -0.560366
        CHANNELS 3 Zrotation Xrotation Yrotation
        JOINT Head
        {
          OFFSET -1.563582 12.514979 -0.809166
          CHANNELS 3 Zrotation Xrotation Yrotation
          End Site
          {
            OFFSET 0 0 0
          }
        }
      }
      JOINT ShoulderLeft
      {
        OFFSET -16.222703 -1.135368 3.808630
        CHANNELS 3 Zrotation Xrotation Yrotation
        JOINT ElbowLeft
        {
          OFFSET -3.345108 -21.778226 1.286127
          CHANNELS 3 Zrotation Xrotation Yrotation
          JOINT WristLeft
          {
            OFFSET 3.057150 -12.236829 -18.754426
            CHANNELS 3 Zrotation Xrotation Yrotation
            JOINT HandLeft
            {
              OFFSET 1.435228 -1.162972 -2.199543
              CHANNELS 3 Zrotation Xrotation Yrotation
              JOINT HandTipLeft
              {
                OFFSET 1.389613 -1.479636 -4.717712
                CHANNELS 3 Zrotation Xrotation Yrotation
                End Site
                {
                  OFFSET 0 0 0
                }
              }
              JOINT ThumbLeft
              {
                OFFSET 3.186256 -0.991427 0.508338
                CHANNELS 3 Zrotation Xrotation Yrotation
                End Site
                {
                  OFFSET 0 0 0
                }
              }
            }
          }
        }
      }
      JOINT ShoulderRight
      {
        OFFSET 15.619543 -0.603837 -3.548407
        CHANNELS 3 Zrotation Xrotation Yrotation
        JOINT ElbowRight
        {
          OFFSET 7.427482 -20.684986 -1.225953
          CHANNELS 3 Zrotation Xrotation Yrotation
          JOINT WristRight
          {
            OFFSET -9.151738 -10.921018 -13.615109
            CHANNELS 3 Zrotation Xrotation Yrotation
            JOINT HandRight
            {
              OFFSET -7.358033 -2.818152 -5.086163
              CHANNELS 3 Zrotation Xrotation Yrotation
              JOINT HandTipRight
              {
                OFFSET -3.494970 -2.647007 -4.259347
                CHANNELS 3 Zrotation Xrotation Yrotation
                End Site
                {
                  OFFSET 0 0 0
                }
              }
              JOINT ThumbRight
              {
                OFFSET -4.368053 -1.630383 -0.095016
                CHANNELS 3 Zrotation Xrotation Yrotation
                End Site
                {
                  OFFSET 0 0 0
                }
              }
            }
          }
        }
      }
    }
  }
  JOINT HipLeft
  {
    OFFSET -7.242204 0.370317 -2.199696
    CHANNELS 3 Zrotation Xrotation Yrotation
    JOINT KneeLeft
    {
      OFFSET -6.546464 -31.083611 2.426153
      CHANNELS 3 Zrotation Xrotation Yrotation
      JOINT AnkleLeft
      {
        OFFSET -1.469743 -35.485084 6.156741
        CHANNELS 3 Zrotation Xrotation Yrotation
        JOINT FootLeft
        {
          OFFSET -2.043666 -3.392185 -12.868264
          CHANNELS 3 Zrotation Xrotation Yrotation
          End Site
          {
            OFFSET 0 0 0
          }
        }
      }
    }
  }
  JOINT HipRight
  {
    OFFSET 6.813387 1.099740 -4.628687
    CHANNELS 3 Zrotation Xrotation Yrotation
    JOINT KneeRight
    {
      OFFSET 4.982541 -30.068214 2.501332
      CHANNELS 3 Zrotation Xrotation Yrotation
      JOINT AnkleRight
      {
        OFFSET 2.948054 -36.599169 8.123864
        CHANNELS 3 Zrotation Xrotation Yrotation
        JOINT FootRight
        {
          OFFSET -1.952697 -5.652360 -8.639416
          CHANNELS 3 Zrotation Xrotation Yrotation
          End Site
          {
            OFFSET 0 0 0
          }
        }
      }
    }
  }
}
MOTION
Frames: 14
Frame Time: 0.033333
23.294512 73.221869 367.507615 -0.000000 0.000000 9.804628 -0.000000 0.000000 -9.804628 -0.000000 0.000000 0.000000 -0.000000 0.000000 0.000000 0.000000 0.000000 0.000000 -0.000000 0.000000 0.000000 -0.000000 0.000000 0.000000 -0.000000 0.000000 0.000000 -0.000000 0.000000 0.000000 0.000000 0.000000 0.000000 0.000000 0.000000 0.000000 -0.000000 0.000000 0.000000 -0.000000 0.000000 0.000000 -0.000000 0.000000 0.000000 -0.000000 0.000000 0.000000 0.000000 0.000000 0.000000 0.000000 0.000000 0.000000 -0.000000 0.000000 -9.804628 -0.000000 0.000000 0.000000 -0.000000 0.000000 0.000000 0.000000 0.000000 0.000000 -0.000000 0.000000 -9.804628 -0.000000 0.000000 0.000000 -0.000000 0.000000 0.000000 0.000000 0.000000 0.000000
23.363704 73.217155 367.398405 -0.130531 -0.005318 10.044497 0.129458 -0.017530 -10.044483 -0.000000 0.000000 0.000000 0.221108 0.851625 0.119082 0.000000 0.000000 0.000000 -0.000000 0.000000 0.000000 -0.000000 0.000000 0.000000 0.007622 -0.989309 -1.255641 -2.155340 0.452313 7.835466 0.000000 0.000000 0.000000 0.000000 0.000000 0.000000 -0.000000 0.000000 0.000000 -0.532243 -0.512958 1.092834 0.751269 -0.255876 0.494727 -0.202771 0.760345 -1.591426 0.000000 0.000000 0.000000 0.000000 0.000000 0.000000 0.129458 -0.017530 -10.044483 -0.000000 0.000000 0.000000 -0.000000 0.000000 0.000000 0.000000 0.000000 0.000000 0.129458 -0.017530 -10.044483 -0.000000 0.000000 0.000000 -1.974621 8.859417 0.093100 0.000000 0.000000 0.000000
23.442266 73.214244 367.290022 -0.254811 -0.012643 10.289304 0.252972 -0.033075 -10.289260 -0.000000 0.000000 0.000000 0.447041 1.550890 0.216712 0.000000 0.000000 0.000000 0.127115 -0.882311 0.143969 -0.124912 0.882625 -0.142028 -0.300280 -2.105710 -2.116738 -3.772125 0.933837 14.848643 0.000000 0.000000 0.000000 0.000000 0.000000 0.000000 0.757613 0.446984 0.112351 -1.716905 -1.443717 1.903969 1.351864 -0.459513 0.990022 0.261292 0.614077 -3.038305 0.000000 0.000000 0.000000 0.000000 0.000000 0.000000 0.252972 -0.033075 -10.289260 -0.000000 0.000000 0.000000 -0.000000 0.000000 0.000000 0.000000 0.000000 0.000000 0.921028 0.543394 -10.132403 -0.556264 -0.684972 -0.163157 -3.181443 14.283480 0.251869 0.000000 0.000000 0.000000
23.530198 73.213137 367.182466 -0.372879 -0.021972 10.539434 0.370607 -0.046603 -10.539354 -0.000000 0.000000 0.000000 0.678773 2.099702 0.293938 0.000000 0.000000 0.000000 0.236870 -1.191188 0.199363 -0.232775 1.191995 -0.194479 -0.964511 -3.245197 -2.359689 -4.674026 1.562992 20.333016 0.000000 0.000000 0.000000 0.000000 0.000000 0.000000 1.074400 0.608058 0.148414 -2.357100 -2.060740 2.642770 1.798717 -0.587678 1.451306 0.352437 0.891829 -4.281635 0.000000 0.000000 0.000000 0.000000 0.000000 0.000000 0.370607 -0.046603 -10.539354 -0.000000 0.000000 0.000000 -0.268027 -0.077409 1.064417 0.000000 0.000000 0.000000 1.315722 0.726877 -10.324877 -0.791290 -0.930260 -0.226512 -3.829116 17.340576 0.323177 0.000000 0.000000 0.000000
23.627499 73.213832 367.075736 -0.484766 -0.033304 10.795276 0.482425 -0.058083 -10.795172 -0.000000 0.000000 0.000000 0.917133 2.499735 0.351791 0.000000 0.000000 0.000000 0.376665 -1.411473 0.243641 -0.370773 1.413032 -0.234429 -1.944661 -4.275892 -1.842139 -4.820604 2.395358 23.797480 0.000000 0.000000 0.000000 0.000000 0.000000 0.000000 1.350766 0.727765 0.171894 -2.857681 -2.606502 3.249042 2.089297 -0.621245 1.848716 0.437160 1.122759 -5.301949 0.000000 0.000000 0.000000 0.000000 0.000000 0.000000 0.482425 -0.058083 -10.795172 -0.000000 0.000000 0.000000 -0.348880 -0.106246 1.389438 0.000000 0.000000 0.000000 1.653808 0.839931 -10.539057 -1.852507 -1.220511 -0.493240 -3.230194 18.741769 0.475031 0.000000 0.000000 0.000000
23.734170 73.216330 366.969832 -0.590506 -0.046636 11.057236 0.588488 -0.067483 -11.057130 -0.000000 0.000000 0.000000 1.162816 2.752332 0.391294 0.000000 0.000000 0.000000 0.545847 -1.543350 0.276640 -0.538586 1.545899 -0.262022 -3.117593 -5.081859 -0.584979 -4.292750 3.392127 25.083380 0.000000 0.000000 0.000000 0.000000 0.000000 0.000000 1.587212 0.806158 0.183245 -3.222046 -3.080673 3.728384 2.221929 -0.545675 2.158764 0.523177 1.292574 -6.076622 0.000000 0.000000 0.000000 0.000000 0.000000 0.000000 0.588488 -0.067483 -11.057130 -0.000000 0.000000 0.000000 -0.425475 -0.136484 1.699519 0.000000 0.000000 0.000000 1.927076 0.876607 -10.776484 -2.209796 -1.305929 -0.573490 -2.820434 18.501084 0.293029 0.000000 0.000000 0.000000
23.853627 73.231380 366.864448 -0.681868 -0.065859 11.329065 -0.105628 0.218902 -11.360049 0.009262 -0.180332 -0.035021 2.216559 2.897876 0.475259 0.000000 0.000000 0.000000 1.726230 -1.629550 0.390089 -0.895928 1.688735 -0.299013 -4.093862 -5.861245 0.345372 -3.521956 5.219906 25.394972 0.000000 0.000000 0.000000 0.000000 0.000000 0.000000 2.641218 0.738740 0.189406 -3.352941 -3.359133 4.018257 2.022118 -0.159202 2.193194 0.624819 1.503433 -6.540051 0.000000 0.000000 0.000000 0.000000 0.000000 0.000000 0.681519 -0.069374 -11.329044 -0.000000 0.000000 0.000000 -0.490883 -0.173153 1.971773 0.000000 0.000000 0.000000 2.243561 0.930391 -11.016715 -2.832076 -1.249951 -0.701259 -1.190577 16.680183 -0.864150 0.000000 0.000000 0.000000
23.986832 73.243971 366.750221 -0.764547 -0.065372 11.637046 -0.089104 0.246681 -11.670527 0.026541 -0.183773 -0.036698 2.510592 2.779896 0.479544 0.000000 0.000000 0.000000 2.123545 -1.524211 0.398607 -1.238073 1.559094 -0.295508 -5.389916 -6.657749 1.997861 -1.929943 6.841519 23.532632 0.000000 0.000000 0.000000 0.000000 0.000000 0.000000 2.866637 0.640602 0.159268 -3.440396 -3.657102 4.286358 1.940476 0.047783 2.442600 0.552070 1.466734 -6.588549 0.000000 0.000000 0.000000 0.000000 0.000000 0.000000 0.762018 -0.090191 -11.636883 -0.000000 0.000000 0.000000 -0.559261 -0.201591 2.250156 0.000000 0.000000 0.000000 2.355602 0.806725 -11.333544 -3.090521 -1.208542 -0.744148 -0.075447 12.813655 -1.019930 0.000000 0.000000 0.000000
24.114825 73.248655 366.652584 -0.858512 -0.097161 11.927354 -0.081272 0.262264 -11.964382 0.037772 -0.190760 -0.039732 2.885512 2.674869 0.482835 0.000000 0.000000 0.000000 2.391337 -1.248227 0.375957 -1.956797 1.452552 0.589684 -5.412570 -8.143249 -0.099235 -1.884123 9.744457 26.097457 0.000000 0.000000 0.000000 0.000000 0.000000 0.000000 2.995670 0.728898 0.183558 -3.239693 -4.246779 4.429971 1.200497 0.955709 2.330636 1.108039 1.136526 -6.775605 0.000000 0.000000 0.000000 0.000000 0.000000 0.000000 0.860057 -0.082371 -11.927464 -0.936166 -0.498518 -0.145696 -0.041003 2.133455 2.708936 0.000000 0.000000 0.000000 2.203279 0.289103 -11.720982 -3.003914 -0.566964 -0.621443 1.213505 6.211312 -0.864807 0.000000 0.000000 0.000000
24.241221 73.241771 366.564900 -0.969174 -0.141976 12.172225 -0.067283 0.276005 -12.213372 0.052156 -0.193521 -0.042922 3.287585 2.517791 0.481021 0.000000 0.000000 0.000000 2.584060 -1.187795 0.384551 -2.384787 1.418686 1.087484 -5.872386 -6.325587 3.815539 0.047867 8.196123 19.697700 0.000000 0.000000 0.000000 0.000000 0.000000 0.000000 3.120199 0.777851 0.192239 -3.180056 -4.494809 4.516254 1.093481 1.315514 1.972918 0.746528 1.275727 -6.108171 0.000000 0.000000 0.000000 0.000000 0.000000 0.000000 1.551062 -0.754649 -11.997098 -1.923175 -0.214974 -0.343394 0.310418 2.044783 2.720640 0.000000 0.000000 0.000000 2.139650 0.162938 -12.005917 -2.813958 -0.499555 -0.573305 1.945736 1.398976 -0.420938 0.000000 0.000000 0.000000
24.376168 73.217361 366.486265 -1.095415 -0.206021 12.385969 -0.059890 0.278704 -12.432409 0.064695 -0.198568 -0.047198 3.929715 2.363201 0.485824 0.000000 0.000000 0.000000 2.747246 -0.917958 0.360538 -2.871287 0.877618 1.697254 -5.060549 -1.366034 8.781947 0.841967 4.197716 11.051683 0.000000 0.000000 0.000000 0.000000 0.000000 0.000000 3.226422 0.825112 0.191811 -3.143343 -4.527375 4.528029 0.780956 1.737176 1.556903 0.671171 1.424562 -5.680299 0.000000 0.000000 0.000000 0.000000 0.000000 0.000000 1.679943 -0.686823 -12.221052 -2.082756 -0.526496 -0.357055 0.744645 -0.064540 3.413007 0.000000 0.000000 0.000000 2.199872 0.189454 -12.230299 -2.748757 -0.663068 -0.582584 2.120686 -0.913894 0.214665 0.000000 0.000000 0.000000
24.521666 73.177919 366.419039 -1.214219 -0.269440 12.619240 -0.052289 0.278846 -12.670823 0.073352 -0.203298 -0.051468 4.630447 2.258552 0.498209 0.000000 0.000000 0.000000 2.905196 -0.534121 0.316712 -3.362571 1.469797 2.621225 -5.221417 -0.855430 10.705872 2.977874 3.106442 3.670805 0.000000 0.000000 0.000000 0.000000 0.000000 0.000000 3.459101 0.866754 0.179426 -2.889275 -5.007467 4.544487 -1.596220 4.124230 0.848271 1.746090 0.473508 -4.288288 0.000000 0.000000 0.000000 0.000000 0.000000 0.000000 1.772096 -0.646272 -12.459698 -2.234356 -0.621866 -0.383678 1.626134 -4.298477 4.059342 0.000000 0.000000 0.000000 2.337455 0.288617 -12.454823 -2.884872 -1.044884 -0.659955 1.717274 -0.274512 0.988409 0.000000 0.000000 0.000000
24.650039 73.129976 366.362599 -1.282554 -0.313464 12.840974 -0.055914 0.267009 -12.896054 0.075201 -0.217113 -0.054634 5.086351 2.119873 0.495439 0.000000 0.000000 0.000000 3.180563 0.246772 0.211468 -3.546736 2.855514 3.112833 -7.982266 2.112389 21.275859 4.151126 -3.202549 -7.303012 0.000000 0.000000 0.000000 0.000000 0.000000 0.000000 3.794126 1.178175 0.243199 -3.044728 -5.085800 4.176396 -4.540135 6.488481 0.359439 2.992886 -0.608931 -2.332431 0.000000 0.000000 0.000000 0.000000 0.000000 0.000000 1.949150 -0.723290 -12.656607 -2.555192 -0.571764 -0.439103 3.623473 -13.549524 4.859521 0.000000 0.000000 0.000000 2.474237 0.441336 -12.653235 -2.992861 -1.598226 -0.750450 -0.266498 6.317612 1.968783 0.000000 0.000000 0.000000
24.770438 73.080892 366.309104 -1.334760 -0.339078 13.042649 -0.065478 0.254191 -13.100612 0.071854 -0.228244 -0.057706 5.500201 1.923547 0.489081 0.000000 0.000000 0.000000 3.018885 0.725677 0.130350 -4.057785 4.289217 4.654163 -5.726711 7.555035 23.408044 -1.166606 -11.517813 -13.376651 0.000000 0.000000 0.000000 0.000000 0.000000 0.000000 4.292610 1.860633 0.421596 -4.975872 -4.316222 4.470404 -4.999488 7.273966 -1.777887 3.348909 -2.095076 1.103437 0.000000 0.000000 0.000000 0.000000 0.000000 0.000000 1.999540 -0.673491 -12.868999 -2.758452 -0.511784 -0.471063 4.717600 -17.831710 5.558296 0.000000 0.000000 0.000000 2.484358 0.613050 -12.838818 -2.896751 -2.085551 -0.803568 -1.175349 8.138951 2.803884 0.000000 0.000000 0.000000
